<?xml version="1.0" standalone="no"?>
<!DOCTYPE svg PUBLIC "-//W3C//DTD SVG 1.1//EN" "http://www.w3.org/Graphics/SVG/1.1/DTD/svg11.dtd" >
<svg xmlns="http://www.w3.org/2000/svg">
<metadata></metadata>
<defs>
<font id="baminiplain" horiz-adv-x="890" >
<font-face units-per-em="2048" ascent="1493" descent="-555" />
<missing-glyph horiz-adv-x="1160" />
<glyph unicode="&#xd;" horiz-adv-x="1160" />
<glyph unicode=" "  horiz-adv-x="1160" />
<glyph unicode="&#x09;" horiz-adv-x="1160" />
<glyph unicode="&#xa0;" horiz-adv-x="1160" />
<glyph unicode="!" horiz-adv-x="612" d="M237 76q0 23 6.5 38t29.5 39t65 24q40 0 70 -30t30 -71q0 -37 -29.5 -66.5t-72.5 -29.5q-39 0 -68 26q-15 13 -21.5 29.5t-9.5 40.5zM237 1096q0 25 5.5 50.5t15.5 52.5q21 46 80 46q58 0 84 -64q5 -18 8.5 -38.5t3.5 -44.5q-2 -8 -2 -17.5v-13.5l-2 -37l-41 -342 l-43 -364h-22l-19 199q0 43 -15.5 152.5t-22.5 161t-14.5 119.5t-15.5 140z" />
<glyph unicode="&#x22;" horiz-adv-x="679" d="M84 1272q0 34 29 70q18 30 80 30q29 0 51 -9.5t45 -33.5q45 -40 45 -118q0 -87 -64 -163q-31 -36 -65.5 -64t-69.5 -44l-18 35q42 23 70 47.5t44 52.5q15 23 23 48t10 42q0 10 -8 18q-10 4 -16 4l-57 -8q-35 0 -67 25t-32 68zM383 1272q0 19 5.5 35t21.5 35q18 30 79 30 q30 0 52 -9.5t45 -33.5q44 -41 45 -118q0 -87 -64 -163q-59 -74 -135 -108l-18 35q86 46 115 100q14 23 22.5 48.5t9.5 41.5q0 10 -8 18q-10 4 -16 4l-58 -8q-32 0 -67 26q-15 13 -22 28t-7 39z" />
<glyph unicode="#" horiz-adv-x="1743" d="M76 362q0 186 62 322.5t153 220.5l57 -66q-46 -43 -88 -103.5t-71.5 -154.5t-29.5 -219q0 -313 179.5 -487t530.5 -174q268 0 411.5 64.5t189 157.5t45.5 212q0 159 -114 160q-32 0 -56 -20.5t-24 -55.5v-219h-152v467h-196v-143q0 -69 -28.5 -143t-102.5 -129.5 t-201 -55.5q-166 0 -253 79.5t-87 215.5q0 111 66 173.5t126 74.5v364h773v-78h-293v-280h430v-78h-82v-99q18 9 35 14t40 5q138 0 203.5 -63t65.5 -199q0 -255 -212 -380.5t-584 -125.5q-354 0 -573.5 188.5t-219.5 554.5zM381 278q0 -79 49.5 -135.5t153.5 -56.5 q149 0 193 72.5t44 167.5v141h-231q-91 0 -150 -50t-59 -139zM571 545h250v280h-250v-280z" />
<glyph unicode="$" horiz-adv-x="1722" d="M72 291q0 112 65.5 174.5t126.5 73.5v364h772v-78h-292v-280h123q36 0 88 -7t73 -19q27 22 81.5 44.5t121.5 22.5q149 0 234.5 -81t85.5 -227q0 -79 -23.5 -124t-48.5 -76h172v-78h-334v28q50 43 75 91.5t25 140.5q0 85 -52.5 163t-159.5 78q-44 0 -64 -6.5t-29 -15.5 q39 -24 75 -79t36 -148q0 -121 -47 -189.5t-122 -68.5q-72 0 -112.5 77.5t-40.5 165.5q0 84 16 125.5t45 90.5q-10 5 -24.5 9.5t-72.5 4.5h-121v-143q0 -70 -29 -143.5t-103 -129t-202 -55.5q-165 0 -251.5 79.5t-86.5 215.5zM151 278q0 -79 49.5 -135.5t153.5 -56.5 q117 0 177.5 56.5t60.5 183.5v141h-234q-90 0 -148.5 -50t-58.5 -139zM342 545h250v280h-250v-280zM977 246q0 -55 20 -93t47 -38q25 0 38.5 45t13.5 102q0 41 -21 83.5t-51 60.5q-22 -22 -34.5 -67.5t-12.5 -92.5z" />
<glyph unicode="%" horiz-adv-x="1821" d="M70 268q0 221 80.5 385t151 183t86.5 19q59 0 99 -50t40 -119q0 -91 -56.5 -143t-128.5 -52q-45 0 -84.5 30.5t-48.5 76.5q-36 -99 -49 -162t-13 -154q0 -264 132.5 -425.5t380.5 -161.5q152 0 246 55t136 126.5t48 123.5h-476v903h152v-825h328v596q0 74 62.5 155.5 t221.5 81.5q154 0 261.5 -110.5t107.5 -329.5q0 -197 -89 -301t-201 -137t-214 -33q-9 -87 -69.5 -174t-189.5 -148t-328 -61q-259 0 -422.5 170.5t-163.5 480.5zM272 645q0 -36 23.5 -60.5t52.5 -21.5q27 0 46 23.5t19 59.5q0 8 -1 12q0 39 -19.5 66.5t-52.5 23.5 q-27 -4 -47.5 -38t-20.5 -65zM1245 78q175 0 298.5 88.5t123.5 306.5q0 187 -82.5 272.5t-173.5 85.5q-82 0 -124 -39t-42 -106v-608z" />
<glyph unicode="&#x26;" horiz-adv-x="1505" d="M74 308q0 222 70 387.5t178 165.5q61 0 105 -47.5t44 -131.5q0 -90 -47.5 -137.5t-118.5 -47.5q-30 0 -68 26t-46 63q-16 -45 -29 -108.5t-13 -167.5q0 -275 167 -446.5t434 -171.5q276 0 408 138.5t132 384.5q0 131 -53.5 202.5t-134.5 71.5q-39 0 -64.5 -16.5 t-39.5 -42.5v-430h-153v825h-249v-825h-77v903h726v-78h-247v-296q25 25 61 40t86 15q53 0 119 -30t117 -111t51 -222q0 -258 -162 -431t-518 -173q-305 0 -491.5 192.5t-186.5 498.5zM237 660q0 -39 19 -65t43 -26q30 0 46.5 29.5t16.5 73.5q0 43 -19.5 66.5t-49.5 23.5 q-26 0 -41 -34t-15 -68z" />
<glyph unicode="'" horiz-adv-x="679" d="M68 1106q-1 83 65 164q62 76 135 106l17 -32q-85 -47 -112 -101q-15 -23 -24.5 -49t-11.5 -43q0 -9 10 -16l14 -4l60 8q32 0 68 -25q29 -24 29 -68q0 -20 -5.5 -34.5t-21.5 -34.5q-20 -32 -80 -33q-28 0 -52.5 10.5t-43.5 34.5q-47 38 -47 117zM366 1106q0 83 64 164 q32 37 65.5 64t69.5 42l19 -32q-88 -47 -115 -101q-15 -24 -23 -48.5t-10 -43.5q0 -9 9 -16q10 -4 16 -4l58 8q30 0 67 -25q28 -25 28 -68q0 -20 -5.5 -35t-20.5 -34q-19 -32 -81 -33q-27 0 -51 10.5t-44 34.5q-45 40 -46 117z" />
<glyph unicode="(" horiz-adv-x="612" d="M84 463q-1 314 186 549q62 76 126.5 132t144.5 101l18 -30q-146 -116 -203.5 -216t-83.5 -225.5t-26 -288.5q0 -118 9 -213t38 -199t97 -204t169 -168l-22 -31q-110 55 -281.5 262t-171.5 531z" />
<glyph unicode=")" horiz-adv-x="612" d="M49 -299q136 106 224.5 257.5t88.5 471.5q0 131 -12 234.5t-44 204t-96.5 190.5t-160.5 156l23 30q142 -78 296.5 -281t154.5 -509q0 -69 -9.5 -130.5t-26.5 -123.5q-16 -60 -40.5 -113.5t-78.5 -141.5t-133 -152t-112 -88t-57 -36z" />
<glyph unicode="*" horiz-adv-x="1791" d="M80 318q0 213 72.5 364.5t135.5 166.5t83 15q62 0 99 -45.5t37 -114.5q0 -102 -56.5 -157.5t-128.5 -55.5q-43 0 -78.5 27t-40.5 59q-22 -74 -34 -123.5t-12 -150.5q0 -151 86 -309.5t256 -265.5t404 -107q273 0 392.5 65t119.5 145q0 24 -33 36t-94 12q-29 0 -57 -4 t-52 -10v-92h-151v227h-438v903h149v-825h289v596q0 77 59.5 157t225.5 80q174 0 290.5 -112.5t116.5 -327.5q0 -199 -88 -302.5t-206.5 -136t-246.5 -32.5v-68q34 8 76 13.5t89 5.5q97 0 159 -28t62 -90q0 -66 -66 -132.5t-214.5 -112t-381.5 -45.5q-362 0 -592.5 231.5 t-230.5 543.5zM253 658q0 -38 24 -62t56 -21q30 0 49 28t19 67q0 36 -21 55t-52 16q-31 0 -53 -27t-22 -56zM1179 78q213 0 338 86.5t125 308.5q0 190 -89.5 274t-208.5 84q-80 0 -122.5 -39t-42.5 -106v-608z" />
<glyph unicode="+" horiz-adv-x="250" d="M-843 -187q0 75 73 83t150 8q56 0 104 -18t78 -37v-56q-35 22 -72 36t-75 14q-53 0 -88 -11.5t-35 -46.5q0 -53 110 -80t248 -27q179 0 285 47.5t106 174.5q0 56 -17.5 83t-67.5 27q-32 0 -47.5 -13t-27.5 -44v-122h-151v169h148v51q14 24 52 43t81 19q92 0 134 -49 t42 -140q0 -161 -150 -234t-377 -73q-218 0 -360.5 52t-142.5 144z" />
<glyph unicode="," horiz-adv-x="1580" d="M72 -30q0 43 40.5 103.5t131.5 117.5q-63 77 -98 208.5t-35 286.5t69 298.5t223.5 237t399.5 93.5q255 0 398 -128t194 -300.5t51 -331.5l-10 -287l-82 4l10 291q0 137 -48 274t-176 234.5t-353 97.5q-218 0 -350 -84t-186 -203.5t-54 -236.5q0 -162 33.5 -254.5 t85.5 -159.5q122 62 255.5 90t274.5 28q83 0 162 -9q12 28 21 76.5t9 98.5q0 139 -66 237.5t-218 98.5h-21q-22 0 -33 -6h-4q79 0 129 -56t50 -131q0 -97 -65 -152t-177 -55q-95 0 -149 64.5t-54 146.5q0 123 90 200.5t219 77.5q209 0 322 -123t113 -314q0 -93 -27 -191 q104 -34 166.5 -63t121 -98t58.5 -179q0 -99 -99.5 -179t-285.5 -80q-157 0 -214.5 15.5t-154.5 54.5q-22 -9 -43 -19q-58 -22 -141.5 -39.5t-184.5 -17.5q-109 0 -203.5 56t-94.5 207zM187 -53q0 -91 57.5 -126.5t150.5 -35.5q49 0 119.5 18.5t107.5 43.5 q-95 44 -189.5 122t-141.5 146q-50 -32 -77 -81t-27 -87zM360 155q47 -63 100 -110t93.5 -74t138.5 -82q67 42 156 149.5t131 227.5q-28 2 -66.5 4t-52.5 2q-120 0 -250.5 -25t-249.5 -92zM507 652q5 -56 34 -88.5t81 -32.5q48 0 78.5 34t30.5 99q0 59 -34 88.5t-87 29.5 q-46 0 -74.5 -33.5t-28.5 -84.5v-12zM817 -165q83 -37 220 -38q106 0 186 29t103 85t23 100q0 85 -68 136.5t-161 77.5q-37 -111 -126.5 -226t-176.5 -164z" />
<glyph unicode="-" horiz-adv-x="493" d="M60 395v112h382v-112h-382z" />
<glyph unicode="." horiz-adv-x="429" d="M113 90q0 43 30 74t72 31t72.5 -30.5t30.5 -74.5q0 -41 -30.5 -71.5t-72.5 -30.5q-43 0 -72.5 30t-29.5 72z" />
<glyph unicode="/" horiz-adv-x="1280" d="M62 103q0 49 36.5 85.5t86.5 36.5q51 0 87 -36t36 -86t-36.5 -86.5t-86.5 -36.5t-86.5 36t-36.5 87zM475 1052q0 50 36.5 86.5t86.5 36.5t86.5 -36t36.5 -87q0 -50 -35.5 -86t-87.5 -36q-50 0 -86.5 35.5t-36.5 86.5zM969 103q0 49 36.5 85.5t86.5 36.5q51 0 87 -36 t36 -86t-36.5 -86.5t-86.5 -36.5t-86.5 36t-36.5 87z" />
<glyph unicode="0" d="M14 592q0 222 93.5 415.5t314.5 193.5q197 0 313 -212q86 -170 86 -389q0 -95 -12.5 -172t-76.5 -260.5t-318 -183.5q-170 0 -254.5 119.5t-115 232.5t-30.5 256zM189 569q0 -203 42 -370t195 -167q127 1 176 141q23 73 35.5 172.5t12.5 231.5q0 114 -7 191.5t-40 230 t-185 152.5q-145 0 -180 -150t-42 -239t-7 -193z" />
<glyph unicode="1" d="M197 1012v22l320 165h10l4 -8l2 -10v-1050q0 -67 26.5 -80.5t60.5 -20t80 -6.5v-24h-489l-2 26q48 0 84 8.5t61 26.5t25 94v809q0 21 -2.5 35t-8.5 29q-13 20 -44 20q-15 0 -29.5 -2.5t-30.5 -9.5z" />
<glyph unicode="2" d="M51 0l2 20q165 170 268.5 287.5t161.5 196.5t87.5 155.5t29.5 149.5q0 63 -18 112t-70.5 100.5t-149.5 51.5q-119 0 -175.5 -67t-94.5 -167l-37 6q39 202 119 260t135 79t115 21q74 0 133 -24t128 -92t69 -206q0 -72 -24 -141t-75 -136t-158 -185.5t-268 -285.5h400 q86 0 117 20q33 18 75 99l22 -10l-97 -244h-695z" />
<glyph unicode="3" d="M76 86q0 12 3 21t11 24q7 9 19.5 13.5t29.5 4.5q48 0 125 -46q78 -51 136 -52q121 0 180 82.5t59 180.5q0 88 -65.5 186t-255.5 98q-15 0 -23 -2l-25 -2l-2 22q141 51 220 116t79 173q0 94 -62 144.5t-145 50.5q-92 0 -138 -42.5t-68 -74t-47 -72.5l-29 6 q37 132 131.5 212t218.5 80q133 0 205.5 -74.5t72.5 -168.5q0 -84 -47.5 -140.5t-115.5 -104.5q84 -38 155.5 -106.5t71.5 -208.5q0 -84 -32 -156.5t-131 -167t-337 -94.5q-107 0 -139 23.5t-43.5 40.5t-11.5 34z" />
<glyph unicode="4" d="M18 297v115l557 787h83v-787h183v-115h-181l-2 -297h-137v297h-503zM92 412h429l-2 606z" />
<glyph unicode="5" d="M55 94q2 17 6.5 26.5t14.5 18.5q15 18 57 18q26 0 57 -12.5t72 -41.5q83 -55 125 -56q102 0 176 89.5t74 215.5q0 224 -188 302.5t-302 78.5q-18 0 -22 2q-6 4 -12 9l2 10l4 12l189 415h374q27 0 39 8t23 18.5t20 19.5l14 -12l-70 -163q0 -7 -14 -9.5t-36 -2.5h-336 l-74 -153q78 -12 126.5 -22t80.5 -24q108 -35 176.5 -102t92 -124t32 -100t8.5 -85q0 -97 -33 -175.5t-136 -175.5t-315 -97q-81 0 -153 20t-72 92z" />
<glyph unicode="6" d="M62 507q0 307 176 463.5t298 203.5t257 47l6 -30q-108 -21 -191 -52q-38 -19 -74 -44t-65 -54t-60 -70.5t-58 -88.5t-46 -94t-33 -98q2 1 39.5 22t64.5 31t61.5 16.5t67.5 6.5q71 0 129 -23.5t128.5 -96.5t70.5 -249q0 -159 -102 -288q-105 -127 -266 -127q-78 0 -147 35 t-162.5 143t-93.5 347zM225 449q0 -71 14.5 -139t60 -171.5t175.5 -103.5q54 0 91.5 21t60.5 66t35 97.5t12 110.5q0 110 -35 207q-61 147 -209 147q-70 0 -113.5 -18.5t-67.5 -63t-24 -153.5z" />
<glyph unicode="7" d="M43 919l70 173q5 11 14.5 37t19.5 52h660v-30l-377 -1167h-114l352 1064h-379q-84 0 -124 -26q-31 -26 -91 -117z" />
<glyph unicode="8" d="M105 268q0 108 45.5 164.5t84 88.5t99.5 73q-119 98 -157 148q-32 44 -48 89.5t-16 96.5q0 113 95 194t249 81q69 0 123.5 -19t97 -57t62.5 -81t20 -96t-20 -98t-64.5 -86t-154.5 -106q144 -106 192.5 -169t65 -112t16.5 -103q0 -122 -70 -187.5t-132.5 -86t-143.5 -20.5 q-73 0 -132 18t-135.5 79.5t-76.5 188.5zM240 289q0 -60 14 -106t60 -99.5t143 -53.5q98 1 151 56q51 56 52 139q0 96 -56 152q-23 27 -81.5 74t-139.5 106q-75 -45 -100.5 -102.5t-34 -94.5t-8.5 -71zM246 979q0 -79 59 -152q30 -33 67 -63t95 -70q85 63 115 99 q52 68 53 161q0 84 -49.5 141.5t-157.5 57.5q-40 0 -71.5 -11.5t-71 -49.5t-39.5 -113z" />
<glyph unicode="9" d="M53 776q0 191 103 309t264 118q189 -1 294 -155q105 -153 105 -340q0 -132 -36 -235t-71 -161.5t-88 -118.5t-122.5 -106t-161.5 -78.5t-233 -51.5l-9 37q48 10 80 19.5t70 25.5q53 19 96 44.5t84 65.5t77.5 88t64.5 105.5t44.5 99t24.5 79.5l-33 -24q-61 -44 -149 -67 q-48 -10 -83 -10q-148 0 -234.5 104.5t-86.5 251.5zM217 843q0 -128 49.5 -236t178.5 -108q29 0 60 9t60 27q32 14 50.5 27t23.5 28l4 64l4 90q0 181 -61 294t-178 113q-45 0 -78.5 -17.5t-73 -77.5t-39.5 -213z" />
<glyph unicode=":" horiz-adv-x="411" d="M123 90q0 39 27 67t65 28t65.5 -28.5t27.5 -66.5q0 -36 -28 -64t-65 -28q-38 0 -65 26.5t-27 65.5zM123 596q0 36 27 64t65 28t65.5 -27t27.5 -65t-27.5 -66.5t-65.5 -28.5t-65 28t-27 67z" />
<glyph unicode=";" horiz-adv-x="2" d="M-756 1167q0 42 30.5 73.5t73.5 31.5q42 0 72.5 -30t30.5 -75q0 -41 -30 -71.5t-73 -30.5q-41 0 -72.5 30.5t-31.5 71.5z" />
<glyph unicode="&#x3c;" horiz-adv-x="972" d="M90 0v903h783v-78h-234v-825h-152v825h-320v-825h-77zM229 469q0 49 29 83t72 34t69.5 -33t26.5 -84q0 -49 -27 -84t-69 -35t-71.5 34.5t-29.5 84.5zM698 469q0 49 29 83t72 34t69.5 -33t26.5 -84q0 -49 -27 -84t-69 -35t-71.5 34.5t-29.5 84.5z" />
<glyph unicode="=" horiz-adv-x="1755" d="M82 0v903h174v-825h257v610q0 105 59 160t165 55q117 0 158.5 -49t60.5 -98q22 49 69.5 98t175.5 49h58q-31 31 -53.5 82.5t-22.5 110.5q0 101 74 188.5t228 87.5q142 0 213.5 -59t71.5 -142q0 -93 -52 -142.5t-153 -49.5q-66 0 -112 43.5t-46 108.5q0 38 10.5 61.5 t26.5 36.5q-72 0 -120 -47t-48 -119q0 -55 23 -95t63 -65h320v-78h-143v-628v-36t1 -40q0 -136 -55.5 -254t-254 -210.5t-580.5 -92.5q-281 0 -416.5 59.5t-135.5 159.5q0 50 33.5 81t85.5 31q86 0 144.5 -12t105.5 -30v-90q-18 9 -76.5 26t-95.5 17q-23 0 -36 -6.5 t-13 -22.5q0 -32 20.5 -59.5t109.5 -50.5t271 -23q314 0 472 67.5t202.5 166.5t44.5 237l-2 710h-167q-101 0 -146 -50.5t-45 -154.5v-620h-159v656q1 7 1.5 15.5t0.5 18.5q0 53 -30 95t-113 42q-81 0 -102.5 -53t-21.5 -139v-635h-500zM1477 1131q0 -40 25 -64.5t63 -24.5 q35 0 60.5 26.5t25.5 64.5q0 35 -25.5 61.5t-60.5 26.5q-39 0 -63.5 -26.5t-24.5 -63.5z" />
<glyph unicode="&#x3e;" horiz-adv-x="471" d="M125 82q0 34 26 69q21 31 80 32q56 0 88 -32t43.5 -61.5t11.5 -69.5q0 -42 -15.5 -82t-46.5 -79q-31 -37 -64.5 -64t-70.5 -45l-20 35q85 46 113 100q34 58 35 92q0 10 -10 17l-15 4l-59 -8q-28 0 -68 22q-28 28 -28 70z" />
<glyph unicode="?" horiz-adv-x="735" d="M131 1063q0 51 21 97.5t87 115t236 68.5q151 0 248 -85q98 -82 98 -231q0 -125 -113 -269.5t-162.5 -243t-62.5 -187.5h-32q0 19 2.5 44t9 70t21.5 95t57.5 147t54 130t20.5 69q12 36 17.5 68.5t5.5 66.5q0 105 -51 187q-56 80 -170 79q-42 0 -72 -9.5t-71.5 -42 t-41.5 -71.5q0 -17 39 -67q20 -23 31 -43t11 -39q0 -30 -25 -55t-58 -25q-37 0 -68.5 30.5t-31.5 100.5zM360 86q0 44 33 75q30 31 74 32q43 0 75.5 -32t32.5 -75q0 -41 -32 -74q-30 -30 -74 -30q-47 0 -78 31.5t-31 72.5z" />
<glyph unicode="@" horiz-adv-x="411" d="M123 596q0 36 27 64t65 28t65.5 -27t27.5 -65t-27.5 -66.5t-65.5 -28.5t-65 28t-27 67zM125 82q0 34 26 69q21 31 80 32q56 0 88 -32t43.5 -61.5t11.5 -69.5q0 -42 -15.5 -82t-46.5 -79q-31 -37 -64.5 -64t-70.5 -45l-20 35q85 46 113 100q34 58 35 92q0 10 -10 17l-15 4 l-59 -8q-28 0 -68 22q-28 28 -28 70z" />
<glyph unicode="A" horiz-adv-x="1419" d="M72 289v614h77v-616q2 -73 25.5 -145t128.5 -72q67 0 113 59.5t75 139.5q10 35 22 71v563h151v-825h527v825h153v-1286h-153v383h-678v149q-24 -63 -81 -108t-141 -45q-101 0 -149 64t-63 152q-4 38 -7 77z" />
<glyph unicode="B" horiz-adv-x="1261" d="M92 0v903h154v-825h393q-26 11 -74.5 58.5t-88.5 130t-40 188.5q0 190 94.5 286t229.5 96q144 0 240 -94.5t96 -233.5q0 -115 -55 -207.5t-190 -92.5q-117 0 -175 83.5t-58 178.5q0 94 51 174t154 80q-12 9 -39.5 16t-66.5 7q-89 0 -146.5 -79t-57.5 -208 q0 -138 85.5 -248.5t188.5 -134.5h390v-78h-1085zM699 482q0 -14 4 -51.5t41.5 -81.5t86.5 -44h12q45 6 75.5 52t30.5 108q0 16 -3.5 53t-40.5 82.5t-86 45.5q-8 0 -12 -1q-47 -5 -77.5 -51.5t-30.5 -111.5z" />
<glyph unicode="C" horiz-adv-x="2268" d="M92 0v100q0 92 62.5 132t310.5 40q154 0 246 73.5t92 240.5q0 156 -104 213.5t-214 57.5q-136 0 -203 -50t-85 -107q13 22 42 45t109 23q98 0 158.5 -53t60.5 -146q0 -84 -46.5 -149.5t-162.5 -65.5q-104 0 -181 52t-77 200q0 149 112.5 237.5t278.5 88.5 q97 0 199.5 -23.5t185 -100.5t82.5 -218q0 -212 -139 -300.5t-336 -88.5q-156 0 -196.5 -11.5t-40.5 -56.5v-53h1925v-80h-2079zM197 549q0 -61 37.5 -92t73.5 -31q53 0 88 31.5t35 92.5q0 14 -4 40.5t-34.5 57t-89.5 30.5q-55 0 -80.5 -40.5t-25.5 -88.5zM1067 507 q0 189 96.5 294.5t249.5 105.5q78 0 155.5 -27.5t96.5 -86.5v110h502v-76h-125v-638h-117v638h-199v-638h-112l-2 409q0 102 -63.5 170.5t-139.5 68.5q-145 0 -213.5 -88t-68.5 -210q29 54 72 76t81 22q85 0 139 -65.5t54 -153.5t-48 -162.5t-153 -74.5q-91 0 -148 93.5 t-57 232.5zM1154 416q0 -12 3.5 -42t35.5 -64t64 -34q39 0 67.5 34t28.5 94q0 13 -3 42t-32.5 64t-72.5 35q-43 -4 -67 -41.5t-24 -87.5z" />
<glyph unicode="D" horiz-adv-x="2047" d="M72 -159q0 45 21 68t76 23h1175q34 46 62.5 94.5t57.5 142t29 205.5q0 223 -101 340t-243 117q-55 0 -104 -18t-64 -33q75 -63 116 -137.5t55.5 -138t14.5 -102.5q0 -201 -62 -305.5t-177 -104.5q-117 0 -172.5 112.5t-55.5 276.5q0 119 39.5 221t95.5 158 q-32 24 -101.5 49.5t-162.5 25.5q-176 0 -298 -109t-122 -259l2 -49q6 42 62 95.5t164 53.5q110 0 188 -76.5t78 -218.5q0 -106 -67.5 -194t-190.5 -88q-75 0 -144 38.5t-118 138.5t-49 275q0 183 139.5 328t353.5 145q138 0 216 -26.5t128 -63.5q44 35 115 61.5t147 26.5 q208 0 339.5 -130.5t131.5 -395.5q0 -125 -26.5 -219.5t-55.5 -145.5t-57 -90h285v971h156v-1046h-504q-45 -55 -144 -110.5t-256 -92.5t-364 -37q-260 0 -434 66.5t-174 157.5zM192 283q0 -16 1 -25q0 -77 44.5 -129.5t106.5 -52.5h12q58 0 94 53.5t36 128.5 q0 16 -4.5 59.5t-46.5 95.5t-101 52h-12q-58 0 -94 -53t-36 -129zM209 -185q0 -47 152 -88t315 -41q198 0 373 51t231 120h-1002q-32 0 -50.5 -7t-18.5 -35zM780 387q0 -95 23.5 -187.5t99.5 -92.5q51 0 82 83.5t31 209.5q0 106 -31.5 183t-91.5 131q-63 -74 -88 -149 t-25 -178z" />
<glyph unicode="E" horiz-adv-x="1497" d="M39 -159q0 45 22 68t76 23h760q31 52 47 129t16 162q0 129 -58 188.5t-132 59.5q-63 0 -100.5 -30.5t-49.5 -86.5v-354h-149v825h-252v-825h-76v903h770v-78h-293v-348q25 33 74 54.5t131 21.5q125 0 205 -84t80 -248q0 -107 -19.5 -174t-46.5 -115h215v971h156v-1046 h-415q-56 -92 -197 -166t-352 -74q-187 0 -299.5 68t-112.5 156zM175 -191q0 -60 78.5 -91.5t193.5 -31.5q176 0 263 49t145 122h-607q-36 0 -54.5 -8t-18.5 -40z" />
<glyph unicode="F" horiz-adv-x="1601" d="M86 316q0 147 44.5 262t113 192.5t151.5 130.5l39 -68q-122 -69 -196.5 -202.5t-74.5 -316.5q0 -283 167 -454.5t467 -171.5q214 0 337.5 74.5t171.5 183.5t48 229q0 140 -55.5 216t-192.5 76h-88v-143q0 -69 -28.5 -143t-102.5 -129.5t-201 -55.5q-166 0 -253 79.5 t-87 215.5q0 111 66 173.5t127 74.5v364h772v-78h-293v-280h102q100 0 184 -31.5t143.5 -118.5t59.5 -240q0 -232 -169.5 -386t-536.5 -154q-341 0 -528 193.5t-187 507.5zM426 278q0 -80 49.5 -136t153.5 -56q152 0 196 72.5t44 167.5v141h-234q-91 0 -150 -50t-59 -139z M616 545h253v280h-253v-280z" />
<glyph unicode="G" horiz-adv-x="1107" d="M88 0v903h152v-825h629v825h151v-1286h-151v383h-781z" />
<glyph unicode="H" horiz-adv-x="843" d="M92 0v903h690v-78h-247v-825h-152v825h-214v-825h-77zM314 1167q0 43 30 74t72 31t72.5 -30t30.5 -75q0 -41 -30.5 -71.5t-72.5 -30.5t-72 30t-30 72z" />
<glyph unicode="I" horiz-adv-x="1588" d="M72 571q0 157 108 248.5t265 91.5q101 0 178.5 -14.5t147.5 -67.5t100 -159q42 140 120.5 190.5t193.5 50.5q135 0 209 -58.5t97.5 -130t23.5 -132.5q0 -184 -91.5 -299.5t-317.5 -115.5h-631q-127 0 -192.5 -64.5t-65.5 -180.5q0 -108 59.5 -171.5t163.5 -63.5 q158 0 223.5 88.5t65.5 167.5v139h193v-152q0 -103 56 -171t161 -68q93 0 139.5 42.5t46.5 137.5q0 55 -20 94t-66 39h-24v84h55q128 0 177.5 -61.5t49.5 -171.5q0 -118 -84.5 -183t-235.5 -65q-185 0 -268.5 68.5t-99.5 195.5q-34 -114 -120.5 -189t-237.5 -75 q-178 0 -276.5 75.5t-98.5 241.5q0 169 102.5 244.5t286.5 75.5h199t228 0.5t212 1.5q136 0 198 83t62 271q0 99 -58 155t-155 56q-117 0 -170 -102t-53 -198v-163h-186v105.5v87.5q0 164 -98.5 223t-203.5 59q-130 0 -193 -50t-86 -109q14 23 43.5 46.5t105.5 23.5 q94 0 153.5 -55.5t59.5 -153.5q0 -84 -47.5 -152t-106 -73.5t-72.5 -5.5q-89 0 -157 61t-68 208zM169 515q0 -63 34.5 -95.5t66.5 -32.5q49 0 80.5 31t31.5 91q-1 9 -1 15v9q-7 48 -36 78t-81 30q-50 0 -72.5 -39.5t-22.5 -86.5z" />
<glyph unicode="J" horiz-adv-x="1642" d="M72 291q0 112 65.5 174.5t126.5 73.5v364h772v-78h-292v-280h143q179 0 269.5 -98t90.5 -226q0 -115 -19 -179t-47 -110h215v971h157v-1046h-418q-63 -89 -223.5 -164.5t-378.5 -75.5q-220 0 -333.5 66.5t-113.5 157.5q0 44 22.5 67.5t78.5 23.5h847q27 45 44.5 97.5 t17.5 167.5q0 132 -68.5 201t-152.5 69h-131v-143q0 -70 -29 -143.5t-103 -129t-202 -55.5q-165 0 -251.5 79.5t-86.5 215.5zM151 278q0 -79 49.5 -135.5t153.5 -56.5q117 0 177.5 56.5t60.5 183.5v141h-234q-90 0 -148.5 -50t-58.5 -139zM221 -191q0 -59 94.5 -91 t213.5 -32q179 0 295 54.5t165 116.5h-694q-34 0 -54 -8t-20 -40zM342 545h250v280h-250v-280z" />
<glyph unicode="K" horiz-adv-x="1920" d="M77 283q0 224 84 388.5t213 238.5l53 -91q-101 -58 -173 -197.5t-72 -338.5q0 -264 150 -433t399 -169q159 0 253.5 54.5t133 128.5t38.5 136h-495v904h176v-800h320v571q0 78 57.5 156.5t224.5 78.5q168 0 289 -114.5t121 -328.5q0 -196 -88.5 -299t-204 -135.5 t-226.5 -32.5q0 -92 -48.5 -186.5t-182.5 -166t-368 -71.5q-295 0 -474.5 203t-179.5 504zM1334 106q410 0 410 361q0 167 -89.5 250t-180.5 83q-77 0 -108.5 -38.5t-31.5 -107.5v-548z" />
<glyph unicode="L" horiz-adv-x="1282" d="M74 442q0 209 54.5 389t178.5 295t322 115q258 0 379 -134.5t154 -315.5q6 -80 13 -158h-81q0 116 -37 221.5t-140 180.5t-288 75q-122 0 -226 -50.5t-177 -199t-73 -413.5q0 -263 72.5 -416t178.5 -214t218 -61q168 0 285 117.5t117 319.5q0 153 -56 210.5t-123 57.5 q-79 0 -109.5 -45.5t-45.5 -91.5v-324h-151v903h151v-432q26 30 71.5 61t141.5 31q131 0 210.5 -105t79.5 -269q0 -103 -44.5 -223.5t-163.5 -211t-325 -90.5q-213 0 -343.5 114t-186.5 290t-56 374z" />
<glyph unicode="M" horiz-adv-x="2043" d="M96 235q0 61 24.5 74t92.5 13h1042q2 11 3 29.5t1 37.5q0 215 -112 335.5t-310 120.5q-32 0 -85.5 -11t-61.5 -27q-1 -1 -1 -2l1 -2q28 8 60 8q70 0 132 -53t62 -144t-65 -151.5t-181 -60.5q-102 0 -157.5 63t-55.5 147q0 130 107 216.5t253 86.5q279 0 423.5 -151 t144.5 -373l-2 -69h164v581h151v-821q15 33 46 52t73 19q97 0 152 -57t55 -158q0 -174 -149.5 -261t-375.5 -87q-186 0 -294.5 60t-108.5 141q0 56 36 74t104 18q66 0 116 -21t95 -49l-4 -61q-39 25 -76 39t-78 14q-40 0 -57 -6t-17 -39q0 -43 65 -74.5t209 -31.5 q187 0 295.5 65.5t108.5 204.5q0 63 -23.5 99.5t-89.5 36.5q-32 0 -55 -24t-27 -68v-119h-151v393h-181q-28 -90 -84 -171.5t-204.5 -150.5t-407.5 -69q-237 0 -419.5 121.5t-182.5 262.5zM207 199q0 -103 163 -190t344 -87q173 0 335.5 79.5t195.5 240.5h-1010 q-16 0 -22 -8t-6 -35zM563 608q0 -48 33.5 -82.5t77.5 -34.5q47 0 80 34t33 83q0 48 -33.5 82.5t-79.5 34.5q-45 0 -78 -34.5t-33 -82.5z" />
<glyph unicode="N" horiz-adv-x="1054" d="M70 674q0 344 156 511t392 167q172 0 268.5 -103t96.5 -223q0 -118 -68 -204.5t-207 -86.5q-120 0 -189.5 77.5t-69.5 193.5q0 118 64 193t155 75q-139 0 -238.5 -45.5t-161 -176.5t-61.5 -378t61.5 -378t161 -175.5t238.5 -44.5q-90 0 -154.5 75t-64.5 193 q0 115 69.5 192.5t189.5 77.5q138 0 206.5 -86.5t68.5 -203.5q0 -119 -96.5 -222.5t-268.5 -103.5q-236 0 -392 166t-156 510zM537 324q0 -72 44 -120.5t107 -48.5h12q59 0 94.5 48.5t35.5 120.5q0 16 -1 24q0 74 -47 122.5t-114 48.5q-63 -7 -97 -61t-34 -134zM537 1026 q0 -79 34 -134t97 -61q66 0 113.5 48t47.5 123q1 6 1 13v11q0 70 -35.5 118.5t-94.5 48.5q-5 1 -15 1q-61 0 -104.5 -48.5t-43.5 -119.5z" />
<glyph unicode="O" horiz-adv-x="1791" d="M111 318q0 173 77.5 341t211.5 242l38 -72q-131 -70 -190 -223t-59 -303q0 -152 79 -310t242 -265t396 -107q191 0 303.5 32t159 80.5t46.5 97.5q0 24 -33 36t-94 12q-29 0 -57 -4t-52 -10v-92h-151v227h-438v903h149v-825h289v596q0 77 59.5 157t225.5 80 q174 0 290.5 -112.5t116.5 -327.5q0 -199 -88 -302.5t-206.5 -136t-246.5 -32.5v-68q34 8 76 13.5t89 5.5q97 0 159 -28t62 -90q0 -66 -65 -132t-213 -112t-381 -46q-360 0 -577.5 230t-217.5 545zM1179 78q213 0 338 86.5t125 308.5q0 190 -89.5 274t-208.5 84 q-80 0 -122.5 -39t-42.5 -106v-608z" />
<glyph unicode="P" horiz-adv-x="5" d="M-530 1096q0 93 77 184.5t199 91.5q140 0 207.5 -62t67.5 -143q0 -90 -51.5 -139t-147.5 -49q-67 0 -113 44t-46 108q0 39 11 62t28 36q-58 -8 -98.5 -53t-40.5 -113q0 -81 66 -127.5t124 -53.5v-52q-127 13 -205 75.5t-78 190.5zM-265 1131q0 -40 25 -64.5t62 -24.5 q35 0 61 27t26 64q0 35 -26.5 61.5t-60.5 26.5q-38 0 -62.5 -26t-24.5 -64z" />
<glyph unicode="Q" horiz-adv-x="1779" d="M80 410q0 147 54 281t138 216l68 -48q-66 -65 -121.5 -190t-55.5 -259q0 -328 182 -518.5t536 -190.5q234 0 383 74.5t216 181t67 206.5q0 135 -53.5 194t-117.5 59q-88 0 -111 -50.5t-30 -101.5v-264h-149v823h-285q-157 0 -276 -105t-119 -251q-1 -11 -1 -17 q0 -10 1 -18t2 -14q0 38 58 93.5t165 55.5q111 0 188.5 -76.5t77.5 -218.5q0 -106 -67 -194t-191 -88q-74 0 -142.5 38t-117.5 139t-49 275q0 183 131 322t344 139h571v-80h-141v-372q20 23 54 46.5t101 23.5q135 0 222.5 -78.5t87.5 -265.5q0 -273 -237.5 -415.5 t-583.5 -142.5q-281 0 -460.5 112t-259 290.5t-79.5 388.5zM444 286q0 -18 4.5 -62t46.5 -96t101 -52h12q58 0 94 53.5t36 128.5q0 16 -1 24q0 77 -44.5 130t-107.5 53h-12q-58 0 -93.5 -52.5t-35.5 -126.5z" />
<glyph unicode="R" horiz-adv-x="1253" d="M72 291q0 112 65.5 174.5t126.5 73.5v364h772v-78h-292v-280h427v-78h-79v-467h-152v467h-196v-143q0 -70 -29 -143.5t-103 -129t-202 -55.5q-165 0 -251.5 79.5t-86.5 215.5zM151 278q0 -79 49.5 -135.5t153.5 -56.5q117 0 177.5 56.5t60.5 183.5v141h-234 q-90 0 -148.5 -50t-58.5 -139zM342 545h250v280h-250v-280z" />
<glyph unicode="S" horiz-adv-x="2191" d="M76 397q0 176 41.5 291t132.5 219l62 -52q-86 -92 -123.5 -195.5t-37.5 -259.5q0 -370 259 -541t719 -171q440 0 640.5 160t200.5 422q0 125 -39.5 172t-107.5 47q-51 0 -78 -26v-463h-152v825h-287v-825h-151v509q0 156 -96.5 239t-245.5 83q-143 0 -250.5 -108.5 t-107.5 -255.5l2 -49q6 41 61.5 95t161.5 54q113 0 190.5 -76t77.5 -219q0 -106 -67.5 -194t-192.5 -88q-120 0 -213.5 100.5t-93.5 351.5q0 185 132 331t344 146q146 0 248 -52.5t128 -114.5v151h652v-78h-140v-268q42 27 90 27q118 0 198.5 -77.5t80.5 -285.5 q0 -135 -100.5 -274t-322 -234.5t-556.5 -95.5q-503 0 -781 193.5t-278 586.5zM494 282q0 -16 1 -24q0 -77 45 -129.5t108 -52.5h12q56 0 93 54t37 128q0 16 -4.5 60t-47 95.5t-101.5 51.5h-13q-58 0 -94 -53.5t-36 -129.5z" />
<glyph unicode="T" horiz-adv-x="1493" d="M76 451q0 187 136.5 324.5t336.5 137.5q207 0 355 -118t148 -363q0 -119 -49.5 -222.5t-93.5 -131.5h-4h338v825h151v-1288h-151v385h-516v45q91 78 130.5 159.5t39.5 223.5q0 161 -89 279t-279 118q-153 0 -265.5 -107t-112.5 -251l2 -49q6 43 55.5 96t147.5 53 q125 0 206 -66.5t81 -199.5q1 -18 1 -28q0 -114 -70.5 -196.5t-190.5 -82.5q-74 0 -142 39.5t-116.5 141t-48.5 276.5zM194 287q0 -23 8 -77t57 -94.5t96 -40.5q9 0 40.5 6t62.5 54.5t31 116.5q0 29 -6 60q-9 63 -47.5 108.5t-98.5 45.5q-14 0 -29 -3q-59 -13 -86.5 -63 t-27.5 -113z" />
<glyph unicode="U" horiz-adv-x="1463" d="M74 310q0 151 39.5 262.5t101 186.5t143.5 138l42 -70q-112 -66 -182.5 -196.5t-70.5 -306.5q0 -281 153.5 -456.5t416.5 -175.5q274 0 401 137.5t127 385.5q0 132 -52.5 203t-136.5 71q-38 0 -64.5 -16.5t-39.5 -42.5v-430h-151v825h-250v-825h-76v903h726v-78h-249 v-296q27 26 62.5 40.5t85.5 14.5q53 0 118.5 -30t116.5 -111t51 -222q0 -166 -60.5 -301t-208 -219t-396.5 -84q-299 0 -473 200t-174 493z" />
<glyph unicode="V" horiz-adv-x="1181" d="M68 442q0 183 131.5 322t343.5 139h571v-80h-141v-893l-438 -313h-90l378 389v817h-284q-157 0 -276.5 -105t-119.5 -251q-1 -11 -1 -17q0 -10 1 -18t2 -14q0 38 58 93.5t165 55.5q113 0 191 -76t78 -219q0 -105 -68.5 -193.5t-191.5 -88.5q-74 0 -143 38.5t-117.5 139 t-48.5 274.5zM184 283q0 -16 1 -25q0 -77 43.5 -129.5t105.5 -52.5h12q58 0 94 53.5t36 128.5q0 16 -1 24q0 77 -44 130t-105 53h-12q-58 0 -94 -53t-36 -129z" />
<glyph unicode="W" horiz-adv-x="1546" d="M39 -159q0 45 22 68t76 23h817q22 37 43 110t21 181q0 99 -28 157t-97 58v75q55 8 86 49t31 114q0 58 -41 107.5t-132 49.5q-96 0 -143 -64t-47 -147v-622h-152v592q0 114 -29.5 176.5t-119.5 62.5q-69 0 -107 -50t-38 -140v-641h-76v647q0 105 54.5 182.5t182.5 77.5 q134 0 179.5 -52.5t64.5 -104.5l18 40q28 46 86.5 80.5t158.5 34.5q156 0 224 -71.5t68 -155.5q0 -138 -111 -195v-6q61 -30 89 -95t28 -163q0 -99 -19.5 -169t-45.5 -118h202v971h156v-1046h-408q-75 -105 -223 -172.5t-378 -67.5q-187 0 -299.5 68t-112.5 156zM175 -191 q0 -60 78.5 -91.5t193.5 -31.5q183 0 289.5 49.5t166.5 121.5h-655q-36 0 -54.5 -8t-18.5 -40z" />
<glyph unicode="X" horiz-adv-x="1335" d="M72 372q0 265 157 405t423 140q283 0 444 -137t161 -342q0 -190 -70 -300t-231 -110q-59 0 -101 14t-60 46q0 -54 45 -85t147 -31h129v-105h-88q-27 0 -45.5 -24.5t-22.5 -51.5q-26 -110 -85 -173t-263 -63q-178 0 -251.5 61.5t-73.5 156.5q0 55 46.5 113.5t155.5 58.5 q131 0 185.5 -64.5t54.5 -130.5h-90q0 47 -27.5 83t-122.5 36q-60 0 -88.5 -32t-28.5 -70q0 -60 41.5 -95.5t141.5 -35.5q140 0 189 59q24 59 50 121.5t113 74.5q-107 21 -151 85t-44 211q0 103 21.5 159t75.5 149l62 -24q-36 -47 -59 -111.5t-23 -113.5q0 -47 22.5 -87 t77.5 -40q114 0 166.5 70t52.5 241q0 176 -123.5 288.5t-366.5 112.5q-180 0 -285.5 -68.5t-147.5 -169t-42 -208.5q0 -114 26 -166.5t58 -73.5q-30 44 -30 123q0 101 51.5 166t146.5 65q108 0 154.5 -77t46.5 -166q0 -106 -57.5 -181t-178.5 -75q-118 0 -203 101t-85 271z M274 256q0 -59 31.5 -100t75.5 -41q43 0 74.5 41.5t31.5 99.5q0 62 -31 103t-75 41q-45 0 -76 -41t-31 -103z" />
<glyph unicode="Y" horiz-adv-x="1814" d="M72 -159q0 45 21 68t76 23h913v64q-140 15 -209.5 117t-69.5 305l-2 95q0 143 -93 225.5t-247 82.5q-124 0 -217 -98.5t-93 -255.5l2 -49q6 43 55.5 96t147.5 53q125 0 206 -66.5t81 -199.5q1 -22 1 -34q0 -115 -69 -196t-203 -81q-116 0 -206 104.5t-90 356.5 q0 189 115 323.5t294 134.5q225 0 344 -111t119 -295l4 -87q0 -183 35.5 -260.5t153.5 -77.5q121 0 179 121.5t58 279.5q0 103 -27 173.5t-64 104t-126.5 57t-89.5 101.5q0 25 17.5 39t41.5 14q18 0 109 -49.5t156 -172t65 -267.5q0 -174 -60.5 -303.5t-170.5 -169.5v-74 h352v971h155v-1046h-553q-51 -82 -248 -161t-418 -79q-220 0 -332.5 66.5t-112.5 157.5zM194 287q0 -23 8 -77t57 -94.5t96 -40.5q9 0 40.5 6t62.5 54.5t31 116.5q0 29 -6 60q-9 63 -47.5 108.5t-98.5 45.5q-14 0 -29 -3q-59 -13 -86.5 -63t-27.5 -113zM207 -191 q0 -59 93.5 -91t214.5 -32q181 0 330.5 57t192.5 114h-760q-33 0 -52 -8t-19 -40z" />
<glyph unicode="Z" horiz-adv-x="2500" d="M70 -137q0 43 19 56t78 13h1658q27 33 60.5 90.5t61 147.5t27.5 204q0 218 -94.5 329.5t-210.5 111.5q-55 0 -87.5 -10t-50.5 -23q81 -69 129 -172t48 -208q0 -200 -63 -305t-176 -105q-117 0 -173.5 113t-56.5 276q0 119 43.5 227.5t99.5 157.5q-25 18 -82 39.5 t-117 21.5q-56 0 -104 -8.5t-92 -40.5q82 -69 131 -170.5t49 -205.5q0 -201 -62 -305.5t-177 -104.5q-117 0 -173.5 113t-56.5 276q0 120 40.5 225t96.5 154q-32 24 -101.5 49.5t-162.5 25.5q-176 0 -298 -109t-122 -259l2 -49q6 42 62 95.5t164 53.5q110 0 188 -76.5 t78 -218.5q0 -106 -67.5 -194t-190.5 -88q-75 0 -144 38.5t-118 138.5t-49 275q0 183 139.5 328t353.5 145q136 0 218 -26.5t128 -61.5q122 84 286 84q74 0 154 -27.5t103 -52.5q38 32 104 51t140 19q173 0 300.5 -127.5t127.5 -386.5q0 -124 -26.5 -217.5t-58.5 -151 t-57 -86.5h287v971h156v-1046h-506q-106 -87 -213 -136t-302.5 -76.5t-530.5 -27.5q-313 0 -561 67t-248 179zM192 283q0 -16 1 -25q0 -77 44.5 -129.5t106.5 -52.5h12q58 0 94 53.5t36 128.5q0 16 -4.5 59.5t-46.5 95.5t-101 52h-12q-58 0 -94 -53t-36 -129zM211 -181 q0 -41 210 -87t456 -46q266 0 433.5 21.5t265 57.5t171.5 92h-1471q-31 0 -48 -6.5t-17 -31.5zM780 387q0 -95 23.5 -187.5t99.5 -92.5q51 0 82 83.5t31 209.5q0 106 -31.5 183t-91.5 131q-63 -74 -88 -149t-25 -178zM1319 387q0 -92 24.5 -186t98.5 -94q51 0 83 84t32 209 q0 105 -30.5 187.5t-88.5 131.5q-65 -73 -92 -152t-27 -180z" />
<glyph unicode="[" horiz-adv-x="1597" d="M72 571q0 157 108 248.5t265 91.5q101 0 178.5 -14.5t147.5 -67.5t100 -159q42 140 120.5 190.5t193.5 50.5q134 0 207.5 -58t98 -131t24.5 -132q0 -184 -91.5 -299.5t-317.5 -115.5h-631q-127 0 -192.5 -64.5t-65.5 -180.5q0 -98 53.5 -166.5t188.5 -68.5 q121 0 192.5 46t123 172t151.5 165t229 39q168 0 259 -52.5t91 -195.5q0 -128 -89 -190t-219 -62q-145 0 -216.5 68t-71.5 178q0 30 10.5 60.5t26.5 50.5l90 4q-21 -36 -28.5 -58t-7.5 -61q0 -69 43.5 -118t137.5 -49q82 0 126.5 39.5t44.5 135.5q0 69 -46 119.5t-161 50.5 q-112 0 -184.5 -34.5t-117.5 -151t-111.5 -164t-144 -60t-173.5 -12.5q-188 0 -263 95t-75 212q0 178 101.5 254t287.5 76h199t228 0.5t212 1.5q136 0 197 82.5t61 269.5q0 74 -43 143.5t-168 69.5q-117 0 -170 -102t-53 -198v-163h-189v193q0 164 -97 223t-202 59 q-130 0 -193 -50t-86 -109q14 23 43.5 46.5t105.5 23.5q94 0 153.5 -55.5t59.5 -153.5q0 -84 -47.5 -152t-106 -73.5t-72.5 -5.5q-89 0 -157 61t-68 208zM169 515q0 -63 34.5 -95.5t66.5 -32.5q49 0 80.5 31t31.5 91q-1 9 -1 15v9q-7 47 -33 77.5t-72 30.5h-12 q-50 0 -72.5 -39.5t-22.5 -86.5z" />
<glyph unicode="\" horiz-adv-x="2029" d="M76 451q0 184 137 323t318 139q245 0 373 -140t128 -333q0 -103 -38.5 -212.5t-100.5 -149.5h628l58 141q-17 -6 -44 -6q-116 0 -229 88.5t-113 267.5q0 177 101.5 252.5t250.5 75.5q45 0 117.5 -28t133 -96.5t60.5 -181.5q0 -46 -10.5 -98.5t-34.5 -113.5q20 7 61.5 35 t79.5 55v-469h-306l-161 -383h-158l162 383h-795q97 77 140 174.5t43 253.5q0 162 -87.5 279.5t-274.5 117.5q-151 0 -257.5 -106t-106.5 -252l2 -49q6 43 55.5 96t147.5 53q125 0 206 -66.5t81 -199.5v-16t1 -15q0 -113 -69 -196.5t-188 -83.5q-74 0 -143.5 40.5 t-118.5 142.5t-49 278zM194 287q0 -23 8 -77t57 -94.5t96 -40.5q9 0 40.5 6t62.5 54.5t31 116.5q0 29 -6 60q-9 63 -47.5 108.5t-98.5 45.5q-14 0 -29 -3q-59 -13 -86.5 -63t-27.5 -113zM1276 557q0 -127 77.5 -195.5t174.5 -68.5q46 0 86 17l72 183q6 16 9.5 41t3.5 46 q0 91 -50.5 157t-182.5 66q-65 0 -127.5 -54t-62.5 -192zM1680 78h183v240l-108 -52z" />
<glyph unicode="]" horiz-adv-x="2047" d="M78 442q0 185 132 331t343 146q161 0 253 -61.5t126 -147.5q7 25 15 51q24 60 78 103t150 43q125 0 187 -56t79 -143t17 -221v-100q0 -180 67.5 -238.5t156.5 -58.5q101 0 158 120.5t57 254.5q0 128 -36 197t-63.5 94t-121 47.5t-93.5 99.5q0 25 17.5 38.5t41.5 13.5 q18 0 107.5 -49t155 -172.5t65.5 -266.5q0 -211 -84 -346t-242 -135q-75 0 -146.5 23t-135.5 119.5t-64 291.5v30t1 43q0 72 -4.5 136.5t-28.5 127t-121 62.5q-75 0 -116.5 -73t-41.5 -209v-15.5v-6.5v-517h-160v519q0 140 -83 227t-235 87t-255 -107t-103 -257l2 -49 q6 42 62 95.5t164 53.5q110 0 188 -76.5t78 -218.5q0 -106 -67.5 -194t-190.5 -88q-74 0 -142.5 38.5t-117.5 139t-49 274.5zM192 283q0 -16 1 -25q0 -77 44.5 -129.5t106.5 -52.5h12q58 0 94 53.5t36 128.5q0 16 -4.5 59.5t-46.5 95.5t-101 52h-12q-58 0 -94 -53t-36 -129z " />
<glyph unicode="^" horiz-adv-x="1282" d="M74 442q0 209 54.5 389t178.5 295t322 115q239 0 379.5 -113t140.5 -283q0 -93 -43.5 -149.5t-113.5 -56.5q-76 0 -118.5 50t-50.5 134q0 94 31 151t78 68q-38 33 -116 56.5t-187 23.5q-120 0 -224.5 -53.5t-178 -205t-73.5 -416.5q0 -263 72.5 -416t178.5 -214t218 -61 q168 0 285 117.5t117 319.5q0 153 -56 210.5t-123 57.5q-79 0 -109.5 -45.5t-45.5 -91.5v-324h-151v903h151v-432q26 30 71.5 61t141.5 31q131 0 210.5 -105t79.5 -269q0 -103 -44.5 -223.5t-163.5 -211t-325 -90.5q-213 0 -343.5 114t-186.5 290t-56 374zM928 854 q2 -9 2 -13q6 -46 29 -74.5t51 -22.5q24 5 39 30t15 61q0 13 -3 28q-5 42 -29 70t-51 25q-24 -5 -38.5 -30t-14.5 -62v-12z" />
<glyph unicode="_" horiz-adv-x="629" d="M-81 803v100h201q27 0 54 -0.5t64 -7.5q45 10 70 10q130 0 213.5 -64t83.5 -187q0 -130 -77.5 -210t-275.5 -80v74q121 0 198.5 54.5t77.5 154.5q0 71 -31.5 110.5t-81.5 49.5q17 -30 22.5 -56t5.5 -55q0 -61 -50.5 -119t-150.5 -58q-71 0 -127 52t-56 123q0 32 5.5 52 t20.5 57h-166zM152 702q0 -36 17 -67t51 -31q37 0 57.5 29t20.5 71q0 38 -16 67.5t-54 29.5q-36 0 -56 -31.5t-20 -67.5z" />
<glyph unicode="`" horiz-adv-x="2324" d="M76 451q0 187 136.5 324.5t336.5 137.5q207 0 355 -118t148 -363q0 -119 -49.5 -222.5t-93.5 -131.5h-4h294v569q0 105 54 182.5t183 77.5q97 0 150.5 -34.5t79.5 -81.5q8 -21 16 -41l18 40q28 46 85.5 80.5t157.5 34.5q157 0 225.5 -71.5t68.5 -155.5q0 -72 -28 -118.5 t-85 -76.5v-6q60 -30 89.5 -96.5t29.5 -161.5q0 -98 -37 -191t-138.5 -159t-279.5 -66h-1265q-117 0 -170.5 -7.5t-53.5 -37.5q0 -13 12.5 -33t12.5 -45q0 -29 -21.5 -56.5t-67.5 -27.5q-53 0 -79.5 36t-26.5 96q0 81 61.5 117t209.5 36h1363q174 0 251 87.5t77 254.5 q0 100 -27 157.5t-96 57.5v75q55 8 85 48.5t30 114.5q0 59 -39.5 108t-132.5 49q-94 0 -142.5 -64.5t-48.5 -146.5v-622h-149v592q0 114 -30 176.5t-120 62.5q-70 0 -107.5 -50t-37.5 -140v-641h-549v45q91 78 130.5 159.5t39.5 223.5q0 161 -89 279t-279 118 q-153 0 -265.5 -107t-112.5 -251l2 -49q6 43 55.5 96t147.5 53q125 0 206 -66.5t81 -199.5q1 -18 1 -28q0 -114 -70.5 -196.5t-190.5 -82.5q-74 0 -142 39.5t-116.5 141t-48.5 276.5zM194 287q0 -23 8 -77t57 -94.5t96 -40.5q9 0 40.5 6t62.5 54.5t31 116.5q0 29 -6 60 q-9 63 -47.5 108.5t-98.5 45.5q-14 0 -29 -3q-59 -13 -86.5 -63t-27.5 -113z" />
<glyph unicode="a" horiz-adv-x="1472" d="M92 289v614h77v-616q2 -73 25.5 -145t129.5 -72q66 0 112.5 60.5t74.5 138.5q10 35 22 71v563h151v-825h527v825h151v-903h-829v149q-24 -63 -81 -108t-140 -45q-101 0 -150.5 65t-63.5 151q-3 38 -6 77z" />
<glyph unicode="b" horiz-adv-x="1253" d="M92 0v903h154v-825h395q-71 39 -139 137.5t-68 237.5q0 189 87 284.5t212 95.5q142 0 241 -82.5t99 -241.5q0 -65 -16.5 -134t-54.5 -154l-64 -143h239v-78h-272l-163 -383h-150l164 383h-664zM513 442q0 -103 51 -183.5t118 -127t109 -51.5l120 286q12 28 20 66.5 t8 74.5q0 100 -54.5 168.5t-174.5 68.5q-80 0 -138.5 -76.5t-58.5 -225.5z" />
<glyph unicode="c" horiz-adv-x="2093" d="M74 0v100q0 92 62.5 132t310.5 40q153 0 245 73.5t92 240.5q0 156 -103 213.5t-212 57.5q-137 0 -204.5 -49.5t-85.5 -107.5q14 22 43.5 45t109.5 23q97 0 157 -53t60 -146q0 -84 -46.5 -149.5t-162.5 -65.5q-104 0 -181 52.5t-77 201.5q0 148 113.5 236t277.5 88 q96 0 199.5 -23.5t186.5 -100.5t83 -218q0 -213 -139 -300t-336 -87q-156 0 -198 -12t-42 -58v-53h1780v-80h-1933zM179 549q0 -61 38 -92t72 -31q53 0 88.5 32t35.5 92q0 14 -3 40.5t-34.5 57t-90.5 30.5q-53 0 -79.5 -41t-26.5 -88z" />
<glyph unicode="d" horiz-adv-x="1626" d="M76 442q0 183 139.5 328t353.5 145q136 0 218 -26.5t128 -61.5q60 41 140 58.5t202 17.5h326v-78h-141v-825h-152v825h-65q-80 0 -142.5 -11.5t-95.5 -35.5q82 -69 131 -170.5t49 -205.5q0 -201 -62 -305.5t-177 -104.5q-117 0 -173.5 113t-56.5 276q0 120 40.5 225 t96.5 154q-32 24 -101.5 49.5t-162.5 25.5q-176 0 -298 -109t-122 -259l2 -49q6 42 62 95.5t164 53.5q110 0 188 -76.5t78 -218.5q0 -106 -67.5 -194t-190.5 -88q-75 0 -144 38.5t-118 138.5t-49 275zM192 283q0 -16 1 -25q0 -77 44.5 -129.5t106.5 -52.5h12q58 0 94 53.5 t36 128.5q0 16 -4.5 59.5t-46.5 95.5t-101 52h-12q-58 0 -94 -53t-36 -129zM780 387q0 -95 23.5 -187.5t99.5 -92.5q51 0 82 83.5t31 209.5q0 106 -31.5 183t-91.5 131q-63 -74 -88 -149t-25 -178z" />
<glyph unicode="e" horiz-adv-x="1155" d="M67 -272q0 81 61.5 117t208.5 36h253q166 0 257.5 92.5t91.5 249.5q0 128 -64.5 188t-140.5 60q-63 0 -101 -31t-49 -86v-354h-151v825h-250v-825h-78v903h808v-78h-329v-348q25 33 73.5 54.5t131.5 21.5q128 0 214 -84.5t86 -247.5q0 -210 -143.5 -314t-340.5 -104h-145 q-117 0 -170.5 -7.5t-53.5 -37.5q0 -13 12.5 -33t12.5 -45q0 -29 -21 -56.5t-67 -27.5q-53 0 -79.5 36t-26.5 96z" />
<glyph unicode="f" horiz-adv-x="1310" d="M72 291q0 112 65 174.5t127 73.5v364h807v-78h-327v-280h167q172 0 250 -69.5t78 -188.5q0 -109 -58.5 -173.5t-134.5 -89t-135 -24.5q-81 0 -146 18.5t-115 69.5q-35 -30 -91 -61t-149 -31q-165 0 -251.5 79.5t-86.5 215.5zM151 278q0 -79 49.5 -135.5t153.5 -56.5 q117 0 177.5 56.5t60.5 183.5v141h-234q-90 0 -148.5 -50t-58.5 -139zM342 545h250v280h-250v-280zM696 145q19 -27 67 -48t96 -21q86 0 157.5 47t71.5 162q0 103 -61.5 142.5t-149.5 39.5h-133v-129q0 -69 -16 -119.5t-32 -73.5z" />
<glyph unicode="g" horiz-adv-x="1124" d="M88 0v903h152v-825h629v825h151v-903h-932z" />
<glyph unicode="h" horiz-adv-x="843" d="M90 0v903h690v-78h-211v-825h-151v825h-251v-825h-77z" />
<glyph unicode="i" horiz-adv-x="1689" d="M76 442q0 183 139.5 328t353.5 145q138 0 216 -26.5t128 -63.5q44 35 114.5 61.5t147.5 26.5q198 0 321.5 -119.5t123.5 -334.5q0 -214 -74 -318t-146 -129.5t-95 -25.5q-24 0 -39 8.5t-15 27.5q0 39 34.5 45t72.5 23t74.5 123t36.5 248q0 172 -97 271t-223 99 q-55 0 -104 -18t-64 -33q75 -63 116 -137.5t55.5 -138t14.5 -102.5q0 -201 -62 -305.5t-177 -104.5q-117 0 -172.5 112.5t-55.5 276.5q0 119 39.5 221t95.5 158q-32 24 -101.5 49.5t-162.5 25.5q-176 0 -298 -109t-122 -259l2 -49q6 42 62 95.5t164 53.5q110 0 188 -76.5 t78 -218.5q0 -106 -67.5 -194t-190.5 -88q-75 0 -144 38.5t-118 138.5t-49 275zM192 283q0 -16 1 -25q0 -77 44.5 -129.5t106.5 -52.5h12q58 0 94 53.5t36 128.5q0 16 -4.5 59.5t-46.5 95.5t-101 52h-12q-58 0 -94 -53t-36 -129zM780 387q0 -95 23.5 -187.5t99.5 -92.5 q51 0 82 83.5t31 209.5q0 106 -31.5 183t-91.5 131q-63 -74 -88 -149t-25 -178z" />
<glyph unicode="j" horiz-adv-x="1324" d="M94 -272q0 81 61.5 117t208.5 36h410q180 0 262 99t82 243q0 129 -65.5 186.5t-153.5 57.5h-133v-143q0 -70 -29 -143.5t-103 -129t-202 -55.5q-165 0 -251.5 79.5t-86.5 215.5q0 112 65.5 174.5t127.5 73.5v364h807v-78h-328v-280h167q170 0 253 -90.5t83 -233.5 q0 -211 -143 -314.5t-350 -103.5h-289q-116 0 -169.5 -7.5t-53.5 -37.5q0 -13 13.5 -32.5t13.5 -45.5q0 -30 -21 -57t-69 -27q-52 0 -79.5 36.5t-27.5 95.5zM174 278q0 -79 49 -135.5t153 -56.5q117 0 177.5 56.5t60.5 183.5v141h-234q-90 0 -148 -50t-58 -139zM364 545h250 v280h-250v-280z" />
<glyph unicode="k" horiz-adv-x="1304" d="M113 0v903h151v-825h328v608q0 73 62 154t223 81q154 0 260 -115.5t106 -334.5q0 -196 -89 -300.5t-200 -137.5t-212 -33h-629zM744 78q175 0 298 88.5t123 306.5q0 188 -78 278t-180 90q-79 0 -121 -39t-42 -106v-618z" />
<glyph unicode="l" horiz-adv-x="1253" d="M88 0v903h152v-825h909v-78h-1061z" />
<glyph unicode="m" horiz-adv-x="1807" d="M96 235q0 61 24.5 74t92.5 13h1042q2 11 3 29.5t1 37.5q0 215 -112 335.5t-310 120.5q-32 0 -85.5 -11t-61.5 -27q-1 -1 -1 -2l1 -2q8 4 26 6t34 2q70 0 132 -52.5t62 -144.5q0 -91 -65 -151.5t-181 -60.5q-102 0 -157.5 63t-55.5 147q0 130 107 216.5t253 86.5 q279 0 424.5 -151t145.5 -373q0 -16 -1.5 -33t-2.5 -36h164v581h153l-2 -1052h-151v391h-181q-26 -88 -82 -170t-205.5 -151.5t-408.5 -69.5q-237 0 -419.5 121.5t-182.5 262.5zM207 199q0 -103 163 -190t344 -87q173 0 335.5 79.5t195.5 240.5h-1010q-16 0 -22 -8t-6 -35z M563 608q0 -48 33.5 -82.5t79.5 -34.5q45 0 78 35t33 82q0 48 -33.5 82.5t-77.5 34.5q-47 0 -80 -33.5t-33 -83.5z" />
<glyph unicode="n" horiz-adv-x="1228" d="M80 684q0 233 88 380t219.5 212.5t259.5 65.5q231 0 370.5 -168.5t139.5 -479.5v-694h-78v654q0 145 -33 278t-128.5 227t-267.5 94q-208 0 -320.5 -173.5t-112.5 -387.5q0 -252 52.5 -387.5t141.5 -181t226 -45.5q-89 0 -154 76.5t-65 195.5q0 117 70.5 197t189.5 80 q138 0 209 -89.5t71 -207.5q0 -121 -93 -224.5t-263 -103.5q-238 0 -380 158t-142 524zM506 354q0 -16 4.5 -57.5t46 -90.5t101.5 -49h12q63 6 97 62t34 137q0 74 -44.5 123.5t-107.5 49.5h-12q-59 -5 -95 -54.5t-36 -120.5z" />
<glyph unicode="o" horiz-adv-x="1301" d="M113 0v903h151v-825h328v606q0 106 80 171.5t205 65.5q151 0 258.5 -115t107.5 -335q0 -195 -88 -299.5t-199.5 -138t-211.5 -33.5v-22q0 -43 52 -75t150 -32h115v-102h-129q-81 0 -147 -38t-129 -75q-90 -39 -220 -39q-116 0 -200.5 52.5t-84.5 155.5q0 34 25.5 71.5 t65.5 37.5q30 0 50 -8.5t20 -32.5q0 -40 -41.5 -48t-41.5 -36q0 -59 57.5 -85.5t135.5 -26.5q113 0 180.5 71t130.5 71q-69 11 -105 38t-36 99v24h-479zM744 78q175 0 298 88.5t123 306.5q0 185 -79.5 276.5t-178.5 91.5q-79 0 -121 -39t-42 -106v-618z" />
<glyph unicode="p" horiz-adv-x="269" d="M-498 1084q0 111 79 200.5t219 89.5q181 0 250.5 -104t69.5 -281v-989h-68v962q0 112 -52.5 189.5t-197.5 77.5q-98 0 -155.5 -50t-57.5 -123q0 -78 44.5 -120t112.5 -54v-52q-123 21 -183.5 83t-60.5 171z" />
<glyph unicode="q" horiz-adv-x="1427" d="M90 0v903h771v-78h-294v-298q26 34 74 54.5t131 20.5q123 0 202.5 -74t79.5 -202q0 -92 -28.5 -159t-75.5 -89h239v825h153v-903h-926v78h301q98 0 142 64t44 166q0 123 -53.5 167t-132.5 44q-62 0 -100 -31t-50 -84v-183h-151v604h-251v-825h-75z" />
<glyph unicode="r" horiz-adv-x="1130" d="M72 291q0 112 65.5 174.5t126.5 73.5v364h772v-78h-292v-280h264v-78h-264v-143q0 -70 -29 -143.5t-103 -129t-202 -55.5q-165 0 -251.5 79.5t-86.5 215.5zM151 278q0 -79 49.5 -135.5t153.5 -56.5q117 0 177.5 56.5t60.5 183.5v141h-234q-90 0 -148.5 -50t-58.5 -139z M342 545h250v280h-250v-280z" />
<glyph unicode="s" horiz-adv-x="1638" d="M78 442q0 185 132 331t343 146q146 0 248 -52t129 -115v151h653v-78h-141v-825h-152v825h-286v-825h-149v509q0 155 -98 238.5t-248 83.5q-140 0 -249 -109t-109 -255l2 -49q6 42 62 95.5t164 53.5q110 0 188 -76.5t78 -218.5q0 -106 -67.5 -194t-190.5 -88 q-74 0 -142.5 38.5t-117.5 139t-49 274.5zM192 283q0 -16 1 -25q0 -77 44.5 -129.5t106.5 -52.5h12q58 0 94 53.5t36 128.5q0 16 -4.5 59.5t-46.5 95.5t-101 52h-12q-58 0 -94 -53t-36 -129z" />
<glyph unicode="t" horiz-adv-x="1522" d="M76 451q0 187 136.5 324.5t336.5 137.5q207 0 355 -118t148 -363q0 -119 -49.5 -222.5t-93.5 -131.5h-4h338v825h151v-903h-667v45q91 78 130.5 159.5t39.5 223.5q0 161 -89 279t-279 118q-153 0 -265.5 -107t-112.5 -251l2 -49q6 43 55.5 96t147.5 53q123 0 205 -71 t82 -203q0 -128 -66.5 -213.5t-193.5 -85.5q-74 0 -142 39.5t-116.5 141t-48.5 276.5zM194 287q0 -23 8 -77t57 -94.5t96 -40.5q9 0 40.5 6t62.5 54.5t31 116.5q0 29 -6 60q-9 63 -47.5 108.5t-98.5 45.5q-14 0 -29 -3q-59 -13 -86.5 -63t-27.5 -113z" />
<glyph unicode="u" horiz-adv-x="862" d="M90 0v903h690v-78h-211v-895l-475 -317v75l324 312v825h-251v-825h-77z" />
<glyph unicode="v" horiz-adv-x="1181" d="M78 442q0 184 131 322.5t344 138.5h571v-80h-141v-823h-152v823h-282q-159 0 -278.5 -105t-119.5 -251l2 -49q6 42 62 95.5t164 53.5q110 0 188 -76.5t78 -218.5q0 -106 -67.5 -194t-190.5 -88q-74 0 -142.5 38.5t-117.5 139t-49 274.5zM192 283q0 -16 1 -25 q0 -77 44.5 -129.5t106.5 -52.5h12q58 0 94 53.5t36 128.5q0 16 -4.5 59.5t-46.5 95.5t-101 52h-12q-58 0 -94 -53t-36 -129z" />
<glyph unicode="w" horiz-adv-x="1202" d="M16 -272q0 81 61.5 117t209.5 36h354q176 0 253 87.5t77 254.5q0 101 -27.5 158t-98.5 57v75q55 8 86 49t31 114q0 59 -39.5 108t-131.5 49q-96 0 -143.5 -64t-47.5 -147v-622h-151v592q0 116 -29 177.5t-119 61.5q-71 0 -109.5 -49.5t-38.5 -140.5v-641h-75v647 q0 105 54.5 182.5t183.5 77.5q97 0 150.5 -34.5t77.5 -81.5q7 -21 15 -41l18 40q28 46 86.5 80.5t157.5 34.5q158 0 226.5 -71.5t68.5 -155.5q0 -71 -28 -119t-84 -76v-6q60 -30 89 -95.5t29 -162.5q0 -99 -37.5 -191.5t-138.5 -158.5t-278 -66h-258q-97 0 -160 -4.5 t-63 -40.5q0 -13 12 -32.5t12 -45.5q0 -31 -19.5 -57.5t-68.5 -26.5q-52 0 -79.5 36.5t-27.5 95.5z" />
<glyph unicode="x" horiz-adv-x="1331" d="M72 379q0 265 157 406t423 141q283 0 444 -138t161 -343q0 -191 -70 -300.5t-231 -109.5q-58 0 -101 14.5t-60 44.5q0 -54 45 -84t147 -30h129v-107h-88q-27 0 -45.5 -24.5t-22.5 -49.5q-25 -111 -84.5 -174t-263.5 -63q-179 0 -256.5 73t-77.5 186q0 10 9.5 35.5 t15.5 34.5h78q-8 -8 -15.5 -32t-7.5 -36q0 -78 48.5 -129.5t148.5 -51.5q140 0 189 59q24 59 50 121.5t113 74.5q-107 21 -151 85.5t-44 212.5q0 103 22 159t75 147l62 -24q-36 -47 -59 -111.5t-23 -113.5q0 -47 22.5 -87t77.5 -40q114 0 166.5 70t52.5 241 q0 176 -123.5 289.5t-366.5 113.5q-181 0 -286 -68.5t-147 -170t-42 -209.5q0 -112 26.5 -165t57.5 -75q-30 44 -30 123q0 101 51.5 166t146.5 65q109 0 155 -76.5t46 -164.5q0 -108 -57.5 -183t-178.5 -75q-117 0 -202.5 101.5t-85.5 271.5zM274 264q0 -59 31.5 -101 t75.5 -42q43 0 74.5 42.5t31.5 100.5q0 61 -30.5 101.5t-75.5 40.5t-76 -41t-31 -101z" />
<glyph unicode="y" horiz-adv-x="1533" d="M76 451q0 189 115 323.5t294 134.5q225 0 344 -111t119 -295l4 -87q0 -183 35.5 -260.5t153.5 -77.5q121 0 179 121.5t58 279.5q0 99 -28 173t-89 128q-11 10 -100.5 33.5t-89.5 101.5q0 25 17.5 39t41.5 14q18 0 109 -49.5t156 -172t65 -267.5q0 -209 -85.5 -348 t-231.5 -139q-174 0 -257 101.5t-83 324.5l-2 95q0 143 -93 225.5t-247 82.5q-124 0 -217 -98.5t-93 -255.5l2 -49q6 43 55.5 96t147.5 53q125 0 206 -66.5t81 -199.5q1 -22 1 -34q0 -115 -69 -196t-203 -81q-116 0 -206 104.5t-90 356.5zM194 287q0 -23 8 -77t57 -94.5 t96 -40.5q9 0 40.5 6t62.5 54.5t31 116.5q0 29 -6 60q-9 63 -47.5 108.5t-98.5 45.5q-14 0 -29 -3q-59 -13 -86.5 -63t-27.5 -113z" />
<glyph unicode="z" horiz-adv-x="2187" d="M76 442q0 183 139.5 328t353.5 145q136 0 218 -26.5t128 -61.5q122 84 286 84q74 0 154 -27.5t103 -52.5q60 36 140 54t198 18h326v-78h-142v-825h-149v825h-68q-74 0 -137 -11t-95 -32q81 -69 129 -172t48 -208q0 -200 -63 -305t-176 -105q-117 0 -173.5 113t-56.5 276 q0 119 43.5 227.5t99.5 157.5q-25 18 -82 39.5t-117 21.5q-56 0 -104 -8.5t-92 -40.5q82 -69 131 -170.5t49 -205.5q0 -201 -62 -305.5t-177 -104.5q-117 0 -173.5 113t-56.5 276q0 120 40.5 225t96.5 154q-32 24 -101.5 49.5t-162.5 25.5q-176 0 -298 -109t-122 -259l2 -49 q6 42 62 95.5t164 53.5q110 0 188 -76.5t78 -218.5q0 -106 -67.5 -194t-190.5 -88q-75 0 -144 38.5t-118 138.5t-49 275zM192 283q0 -16 1 -25q0 -77 44.5 -129.5t106.5 -52.5h12q58 0 94 53.5t36 128.5q0 16 -4.5 59.5t-46.5 95.5t-101 52h-12q-58 0 -94 -53t-36 -129z M780 387q0 -95 23.5 -187.5t99.5 -92.5q51 0 82 83.5t31 209.5q0 106 -31.5 183t-91.5 131q-63 -74 -88 -149t-25 -178zM1319 387q0 -92 24.5 -186t98.5 -94q51 0 83 84t32 209q0 105 -30.5 187.5t-88.5 131.5q-65 -73 -92 -152t-27 -180z" />
<glyph unicode="{" horiz-adv-x="502" d="M-88 803v100h201q62 0 112 -10q23 10 111 10h121v-100h-53q17 -29 21.5 -54t4.5 -57q0 -59 -49.5 -117t-147.5 -58q-70 0 -126 52.5t-56 118.5q0 36 6 59t21 56h-166zM145 696q4 -34 23 -63t53 -29q35 0 52.5 32t17.5 74q-4 36 -22 63.5t-56 27.5q-35 0 -51.5 -33 t-16.5 -72z" />
<glyph unicode="|" horiz-adv-x="417" d="M84 1272q0 34 29 70q18 30 80 30q29 0 51 -9.5t45 -33.5q45 -40 45 -118q0 -87 -64 -163q-31 -36 -65.5 -64t-69.5 -44l-18 35q42 23 70 47.5t44 52.5q15 23 23 48t10 42q0 10 -8 18q-10 4 -16 4l-57 -8q-35 0 -67 25t-32 68z" />
<glyph unicode="}" horiz-adv-x="597" d="M-232 903h740v-80h-211v-825h-152v825h-298z" />
<glyph unicode="~" horiz-adv-x="399" d="M68 1106q-1 83 65 164q62 76 135 106l17 -32q-85 -47 -112 -101q-15 -23 -24.5 -49t-11.5 -43q0 -9 10 -16l14 -4l60 8q32 0 68 -25q29 -24 29 -68q0 -20 -5.5 -34.5t-21.5 -34.5q-20 -32 -80 -33q-28 0 -52.5 10.5t-43.5 34.5q-47 38 -47 117z" />
<glyph unicode="&#xa9;" horiz-adv-x="3807" d="M15 362q0 51 36 86t86 35q51 0 86.5 -34t35.5 -87q0 -51 -35.5 -86.5t-86.5 -35.5t-86.5 35.5t-35.5 86.5zM27 362q0 -44 32 -77t78 -33q45 0 77.5 32.5t32.5 77.5q0 46 -32.5 78.5t-77.5 32.5t-77.5 -32t-32.5 -79zM72 361q0 32 19 51.5t51 19.5q27 0 48 -7v-38h-7 l-3 20q-3 8 -14.5 13t-21.5 5q-26 0 -39.5 -16.5t-13.5 -44.5q0 -25 13.5 -44t38.5 -19q31 0 44 28l5 -3q-15 -35 -57 -35q-28 0 -45.5 20.5t-17.5 49.5zM294 448v12h124v-12h-41v-115h147v84q0 20 -10 25.5t-36 5.5v12h124v-12h-40v-405q0 -19 10.5 -24.5t35.5 -5.5v-13 h-124v13h40v305h-147v-275q0 -19 10 -24.5t36 -5.5v-13h-123v13h40v404q0 20 -10 25.5t-36 5.5zM639 0v13h29l111 471h13l122 -389l12 -36t14 -30.5t34 -15.5v-13h-113v13h43l-90 287h-57l-49 -200q-3 -13 -5.5 -28.5t-2.5 -26.5q0 -19 9.5 -24.5t33.5 -7.5h19v-13h-123z M762 316h43l-21 90zM998 448v12h84v-43q30 21 65.5 34.5t69.5 13.5q80 0 140 -54.5t60 -134.5q0 -83 -60 -139.5t-141 -56.5l20 -10q61 -28 99 -45t64 -17q21 0 36 7l5 -7q-10 -9 -23 -12.5t-28 -3.5q-45 0 -125 28.5t-182 90.5v-61q0 -23 7 -30t37 -7h16v-13h-138v13h40 v404q0 20 -10 25.5t-36 5.5zM1082 137l7 11q34 -24 65.5 -38.5t63.5 -14.5q69 0 115 50.5t46 118.5q0 75 -52 128t-125 53t-120 -56v-252zM1458 0v13h30l111 471h13l122 -389q7 -22 12.5 -37t14 -30t32.5 -15v-13h-113v13h44l-90 287h-57l-49 -200q-4 -17 -6.5 -29t-2.5 -26 q0 -15 7.5 -22.5t36.5 -9.5h19v-13h-124zM1582 316h43l-21 90zM1800 448v12h65l178 -381l1 316q0 18 -6.5 35.5t-37.5 17.5v12h98v-12h-33v-472h-11l-181 385l-1 -295q0 -32 13 -42.5t39 -10.5v-13h-108v13h35v382q0 30 -13 41.5t-38 11.5zM2221 229q0 104 77.5 174.5 t183.5 70.5q35 0 64 -8t62 -25v41h12v-168h-12q0 24 -2.5 45.5t-12.5 44t-48.5 38t-76.5 15.5q-91 0 -150 -65t-59 -162q0 -84 64.5 -155.5t144.5 -71.5q42 0 77 12t64 35v23v19q0 28 -8 34t-47 6h-14v12h154v-12h-47v-13q-1 -13 -1 -20q0 -21 11 -30q-38 -37 -88 -60 t-101 -23q-103 0 -175 70t-72 173zM2695 235l75 90l9 -8l-17 -21v-26q19 19 34.5 29t36.5 10q13 0 19.5 -1.5t20.5 -7.5v27h12v-130h-12v4v15q0 17 -1 24t-4 18q-12 29 -40 33q-18 3 -37.5 -13t-28.5 -37v-198q0 -25 12 -27.5t29 -2.5v-13h-106v13h32v244l-25 -30zM2912 89 q0 48 37 80t87 32q25 0 49 -12v8v17q0 28 -10 46q-15 32 -53 33q-37 0 -59.5 -33t-22.5 -71h-12v139h12v-60q20 20 40 30.5t47 10.5q50 0 67.5 -26t20 -46.5t2.5 -46.5v-147q0 -22 8.5 -26t34.5 -4v-13h-75v15q-16 -11 -35 -17.5t-39 -6.5q-41 0 -70 28t-29 70zM2938 103 q0 -36 24.5 -65.5t61.5 -29.5q19 0 33.5 7.5t27.5 21.5v114q-13 16 -27.5 24.5t-33.5 8.5q-36 0 -61 -23t-25 -58zM3142 232l74 89l10 -7l-18 -22v-32q25 22 56 35.5t61 13.5q63 0 107 -43t44 -105q0 -68 -38.5 -104.5t-71 -51t-65.5 -14.5q-52 0 -93 34v-174 q0 -21 8.5 -26.5t33.5 -5.5v-12h-106v12h32v435l-25 -30zM3208 72q21 -27 49.5 -43t61.5 -16q53 0 91.5 38.5t38.5 91.5q0 56 -39.5 99.5t-96.5 43.5q-63 -1 -105 -48v-166zM3463 423l77 90l9 -9l-14 -16v-215q18 17 35.5 26.5t39.5 9.5q19 0 36.5 -9t29.5 -27.5t13.5 -41 t1.5 -41.5v-147q0 -22 8.5 -26t33.5 -4v-13h-107v13h33v178q0 22 -1.5 37t-11 39t-48.5 24q-28 0 -45.5 -26t-17.5 -55v-167q0 -22 8 -26t33 -4v-13h-105v13h33v438l-30 -35z" />
<glyph unicode="&#xad;" horiz-adv-x="493" d="M60 395v112h382v-112h-382z" />
<glyph unicode="&#xfd;" horiz-adv-x="0" />
<glyph unicode="&#x2000;" horiz-adv-x="688" />
<glyph unicode="&#x2001;" horiz-adv-x="1376" />
<glyph unicode="&#x2002;" horiz-adv-x="688" />
<glyph unicode="&#x2003;" horiz-adv-x="1376" />
<glyph unicode="&#x2004;" horiz-adv-x="458" />
<glyph unicode="&#x2005;" horiz-adv-x="344" />
<glyph unicode="&#x2006;" horiz-adv-x="229" />
<glyph unicode="&#x2007;" horiz-adv-x="229" />
<glyph unicode="&#x2008;" horiz-adv-x="172" />
<glyph unicode="&#x2009;" horiz-adv-x="275" />
<glyph unicode="&#x200a;" horiz-adv-x="76" />
<glyph unicode="&#x2010;" horiz-adv-x="493" d="M60 395v112h382v-112h-382z" />
<glyph unicode="&#x2011;" horiz-adv-x="493" d="M60 395v112h382v-112h-382z" />
<glyph unicode="&#x2012;" horiz-adv-x="493" d="M60 395v112h382v-112h-382z" />
<glyph unicode="&#x2013;" horiz-adv-x="1135" d="M60 395v112h1024v-112h-1024z" />
<glyph unicode="&#x2014;" horiz-adv-x="2159" d="M60 395v112h2048v-112h-2048z" />
<glyph unicode="&#x202f;" horiz-adv-x="275" />
<glyph unicode="&#x205f;" horiz-adv-x="344" />
<glyph unicode="&#xe000;" horiz-adv-x="928" d="M0 0v928h928v-928h-928z" />
</font>
</defs>
</svg>
